<svg width="277" height="47" viewBox="0 0 277 47" fill="none" xmlns="http://www.w3.org/2000/svg">
<path d="M22.3438 0.625V46.125H14.5625V0.625H22.3438ZM36.625 0.625V6.875H0.40625V0.625H36.625Z" fill="white"/>
<path d="M57.3438 6.6875L43.75 46.125H35.5312L52.6562 0.625H57.9062L57.3438 6.6875ZM68.7188 46.125L55.0938 6.6875L54.5 0.625H59.7812L76.9688 46.125H68.7188ZM68.0625 29.25V35.4688H43.3125V29.25H68.0625Z" fill="white"/>
<path d="M106 34.4062C106 33.4688 105.854 32.6354 105.562 31.9062C105.292 31.1771 104.802 30.5104 104.094 29.9062C103.385 29.3021 102.385 28.7188 101.094 28.1562C99.8229 27.5729 98.1979 26.9792 96.2188 26.375C94.0521 25.7083 92.0521 24.9688 90.2188 24.1562C88.4062 23.3229 86.8229 22.3646 85.4688 21.2812C84.1146 20.1771 83.0625 18.9167 82.3125 17.5C81.5625 16.0625 81.1875 14.4062 81.1875 12.5312C81.1875 10.6771 81.5729 8.98958 82.3438 7.46875C83.1354 5.94792 84.25 4.63542 85.6875 3.53125C87.1458 2.40625 88.8646 1.54167 90.8438 0.9375C92.8229 0.3125 95.0104 0 97.4062 0C100.781 0 103.688 0.625 106.125 1.875C108.583 3.125 110.469 4.80208 111.781 6.90625C113.115 9.01042 113.781 11.3333 113.781 13.875H106C106 12.375 105.677 11.0521 105.031 9.90625C104.406 8.73958 103.448 7.82292 102.156 7.15625C100.885 6.48958 99.2708 6.15625 97.3125 6.15625C95.4583 6.15625 93.9167 6.4375 92.6875 7C91.4583 7.5625 90.5417 8.32292 89.9375 9.28125C89.3333 10.2396 89.0312 11.3229 89.0312 12.5312C89.0312 13.3854 89.2292 14.1667 89.625 14.875C90.0208 15.5625 90.625 16.2083 91.4375 16.8125C92.25 17.3958 93.2708 17.9479 94.5 18.4688C95.7292 18.9896 97.1771 19.4896 98.8438 19.9688C101.365 20.7188 103.562 21.5521 105.438 22.4688C107.312 23.3646 108.875 24.3854 110.125 25.5312C111.375 26.6771 112.312 27.9792 112.938 29.4375C113.562 30.875 113.875 32.5104 113.875 34.3438C113.875 36.2604 113.49 37.9896 112.719 39.5312C111.948 41.0521 110.844 42.3542 109.406 43.4375C107.99 44.5 106.281 45.3229 104.281 45.9062C102.302 46.4688 100.094 46.75 97.6562 46.75C95.4688 46.75 93.3125 46.4583 91.1875 45.875C89.0833 45.2917 87.1667 44.4062 85.4375 43.2188C83.7083 42.0104 82.3333 40.5104 81.3125 38.7188C80.2917 36.9062 79.7812 34.7917 79.7812 32.375H87.625C87.625 33.8542 87.875 35.1146 88.375 36.1562C88.8958 37.1979 89.6146 38.0521 90.5312 38.7188C91.4479 39.3646 92.5104 39.8438 93.7188 40.1562C94.9479 40.4688 96.2604 40.625 97.6562 40.625C99.4896 40.625 101.021 40.3646 102.25 39.8438C103.5 39.3229 104.438 38.5938 105.062 37.6562C105.688 36.7188 106 35.6354 106 34.4062Z" fill="white"/>
<path d="M128.656 0.625V46.125H120.812V0.625H128.656ZM156 0.625L137.562 22.5312L127.062 33.6562L125.688 25.875L133.188 16.625L146.438 0.625H156ZM147.562 46.125L132.594 24.5625L138 19.2188L156.875 46.125H147.562Z" fill="white"/>
<path d="M178.969 6.6875L165.375 46.125H157.156L174.281 0.625H179.531L178.969 6.6875ZM190.344 46.125L176.719 6.6875L176.125 0.625H181.406L198.594 46.125H190.344ZM189.688 29.25V35.4688H164.938V29.25H189.688Z" fill="white"/>
<path d="M238.125 22.875V40.25C237.479 41.1042 236.469 42.0417 235.094 43.0625C233.74 44.0625 231.938 44.9271 229.688 45.6562C227.438 46.3854 224.635 46.75 221.281 46.75C218.427 46.75 215.812 46.2708 213.438 45.3125C211.062 44.3333 209.01 42.9062 207.281 41.0312C205.573 39.1562 204.25 36.875 203.312 34.1875C202.375 31.4792 201.906 28.3958 201.906 24.9375V21.7812C201.906 18.3438 202.333 15.2812 203.188 12.5938C204.062 9.88542 205.312 7.59375 206.938 5.71875C208.562 3.84375 210.521 2.42708 212.812 1.46875C215.125 0.489583 217.74 0 220.656 0C224.385 0 227.469 0.625 229.906 1.875C232.365 3.10417 234.26 4.8125 235.594 7C236.927 9.1875 237.771 11.6875 238.125 14.5H230.438C230.188 12.9167 229.698 11.5 228.969 10.25C228.26 9 227.24 8.02083 225.906 7.3125C224.594 6.58333 222.885 6.21875 220.781 6.21875C218.969 6.21875 217.375 6.5625 216 7.25C214.625 7.9375 213.479 8.94792 212.562 10.2812C211.667 11.6146 210.99 13.2396 210.531 15.1562C210.073 17.0729 209.844 19.2604 209.844 21.7188V24.9375C209.844 27.4375 210.104 29.6562 210.625 31.5938C211.167 33.5312 211.938 35.1667 212.938 36.5C213.958 37.8333 215.198 38.8438 216.656 39.5312C218.115 40.1979 219.76 40.5312 221.594 40.5312C223.385 40.5312 224.854 40.3854 226 40.0938C227.146 39.7812 228.052 39.4167 228.719 39C229.406 38.5625 229.938 38.1458 230.312 37.75V28.7188H220.844V22.875H238.125Z" fill="white"/>
<path d="M276.594 39.9062V46.125H252.438V39.9062H276.594ZM254.656 0.625V46.125H246.812V0.625H254.656ZM273.438 19.625V25.75H252.438V19.625H273.438ZM276.438 0.625V6.875H252.438V0.625H276.438Z" fill="white"/>
</svg>
