<svg width="277" height="47" viewBox="0 0 277 47" fill="none" xmlns="http://www.w3.org/2000/svg">
<path d="M22.3438 0.625069V46.1251H14.5625V0.625069H22.3438ZM36.625 0.625069V6.87507H0.406265V0.625069H36.625Z" fill="black"/>
<path d="M57.3438 6.68757L43.75 46.1251H35.5313L52.6563 0.625069H57.9063L57.3438 6.68757ZM68.7188 46.1251L55.0938 6.68757L54.5 0.625069H59.7813L76.9688 46.1251H68.7188ZM68.0625 29.2501V35.4688H43.3125V29.2501H68.0625Z" fill="black"/>
<path d="M106 34.4063C106 33.4688 105.854 32.6355 105.563 31.9063C105.292 31.1772 104.802 30.5105 104.094 29.9063C103.385 29.3022 102.385 28.7188 101.094 28.1563C99.8229 27.573 98.1979 26.9792 96.2188 26.3751C94.0521 25.7084 92.0521 24.9688 90.2188 24.1563C88.4063 23.323 86.8229 22.3647 85.4688 21.2813C84.1146 20.1772 83.0625 18.9167 82.3125 17.5001C81.5625 16.0626 81.1875 14.4063 81.1875 12.5313C81.1875 10.6772 81.5729 8.98965 82.3438 7.46882C83.1354 5.94799 84.25 4.63549 85.6875 3.53132C87.1458 2.40632 88.8646 1.54174 90.8438 0.937569C92.8229 0.312569 95.0104 6.86646e-05 97.4063 6.86646e-05C100.781 6.86646e-05 103.688 0.625069 106.125 1.87507C108.583 3.12507 110.469 4.80215 111.781 6.90632C113.115 9.01049 113.781 11.3334 113.781 13.8751H106C106 12.3751 105.677 11.0522 105.031 9.90632C104.406 8.73965 103.448 7.82299 102.156 7.15632C100.885 6.48965 99.2708 6.15632 97.3125 6.15632C95.4583 6.15632 93.9167 6.43757 92.6875 7.00007C91.4583 7.56257 90.5417 8.32299 89.9375 9.28132C89.3333 10.2397 89.0313 11.323 89.0313 12.5313C89.0313 13.3855 89.2292 14.1667 89.625 14.8751C90.0208 15.5626 90.625 16.2084 91.4375 16.8126C92.25 17.3959 93.2708 17.948 94.5 18.4688C95.7292 18.9897 97.1771 19.4897 98.8438 19.9688C101.365 20.7188 103.563 21.5522 105.438 22.4688C107.313 23.3647 108.875 24.3855 110.125 25.5313C111.375 26.6772 112.313 27.9792 112.938 29.4376C113.563 30.8751 113.875 32.5105 113.875 34.3438C113.875 36.2605 113.49 37.9897 112.719 39.5313C111.948 41.0522 110.844 42.3542 109.406 43.4376C107.99 44.5001 106.281 45.323 104.281 45.9063C102.302 46.4688 100.094 46.7501 97.6563 46.7501C95.4688 46.7501 93.3125 46.4584 91.1875 45.8751C89.0833 45.2917 87.1667 44.4063 85.4375 43.2188C83.7083 42.0105 82.3333 40.5105 81.3125 38.7188C80.2917 36.9063 79.7813 34.7917 79.7813 32.3751H87.625C87.625 33.8542 87.875 35.1147 88.375 36.1563C88.8958 37.198 89.6146 38.0522 90.5313 38.7188C91.4479 39.3647 92.5104 39.8438 93.7188 40.1563C94.9479 40.4688 96.2604 40.6251 97.6563 40.6251C99.4896 40.6251 101.021 40.3647 102.25 39.8438C103.5 39.323 104.438 38.5938 105.063 37.6563C105.688 36.7188 106 35.6355 106 34.4063Z" fill="black"/>
<path d="M128.656 0.625069V46.1251H120.813V0.625069H128.656ZM156 0.625069L137.563 22.5313L127.063 33.6563L125.688 25.8751L133.188 16.6251L146.438 0.625069H156ZM147.563 46.1251L132.594 24.5626L138 19.2188L156.875 46.1251H147.563Z" fill="black"/>
<path d="M178.969 6.68757L165.375 46.1251H157.156L174.281 0.625069H179.531L178.969 6.68757ZM190.344 46.1251L176.719 6.68757L176.125 0.625069H181.406L198.594 46.1251H190.344ZM189.688 29.2501V35.4688H164.938V29.2501H189.688Z" fill="black"/>
<path d="M238.125 22.8751V40.2501C237.479 41.1042 236.469 42.0417 235.094 43.0626C233.74 44.0626 231.938 44.9272 229.688 45.6563C227.438 46.3855 224.635 46.7501 221.281 46.7501C218.427 46.7501 215.813 46.2709 213.438 45.3126C211.063 44.3334 209.01 42.9063 207.281 41.0313C205.573 39.1563 204.25 36.8751 203.313 34.1876C202.375 31.4792 201.906 28.3959 201.906 24.9376V21.7813C201.906 18.3438 202.333 15.2813 203.188 12.5938C204.063 9.88549 205.313 7.59382 206.938 5.71882C208.563 3.84382 210.521 2.42715 212.813 1.46882C215.125 0.489652 217.74 6.86646e-05 220.656 6.86646e-05C224.385 6.86646e-05 227.469 0.625069 229.906 1.87507C232.365 3.10424 234.26 4.81257 235.594 7.00007C236.927 9.18757 237.771 11.6876 238.125 14.5001H230.438C230.188 12.9167 229.698 11.5001 228.969 10.2501C228.26 9.00007 227.24 8.0209 225.906 7.31257C224.594 6.5834 222.885 6.21882 220.781 6.21882C218.969 6.21882 217.375 6.56257 216 7.25007C214.625 7.93757 213.479 8.94799 212.563 10.2813C211.667 11.6147 210.99 13.2397 210.531 15.1563C210.073 17.073 209.844 19.2605 209.844 21.7188V24.9376C209.844 27.4376 210.104 29.6563 210.625 31.5938C211.167 33.5313 211.938 35.1667 212.938 36.5001C213.958 37.8334 215.198 38.8438 216.656 39.5313C218.115 40.198 219.76 40.5313 221.594 40.5313C223.385 40.5313 224.854 40.3855 226 40.0938C227.146 39.7813 228.052 39.4167 228.719 39.0001C229.406 38.5626 229.938 38.1459 230.313 37.7501V28.7188H220.844V22.8751H238.125Z" fill="black"/>
<path d="M276.594 39.9063V46.1251H252.438V39.9063H276.594ZM254.656 0.625069V46.1251H246.813V0.625069H254.656ZM273.438 19.6251V25.7501H252.438V19.6251H273.438ZM276.438 0.625069V6.87507H252.438V0.625069H276.438Z" fill="black"/>
</svg>
