<svg width="39" height="46" viewBox="0 0 39 46" fill="none" xmlns="http://www.w3.org/2000/svg">
<path d="M38.5798 6.53078L0.696068 6.53078L0.696068 -1.65595e-06L38.5798 0L38.5798 6.53078ZM18.7012 17.6657L15.7091 17.6657L15.7091 9.57501L11.0777 5.20381L17.5564 4.05897L25.258 10.3035L25.258 17.6657L18.7012 17.6657Z" fill="black"/>
<path d="M2.93191e-06 30.6001C3.05769e-06 27.7226 0.461826 25.0404 1.38547 22.5537C2.34463 20.1025 3.69457 17.971 5.43528 16.1593C7.17599 14.3475 9.21866 12.9265 11.5633 11.8963C13.9079 10.9016 16.4834 10.4043 19.2899 10.4043C22.0963 10.4043 24.6719 10.9016 27.0165 11.8963C29.3611 12.9265 31.4038 14.3475 33.1445 16.1593C34.8852 18.0066 36.2174 20.1558 37.141 22.607C38.1002 25.0582 38.5798 27.7403 38.5798 30.6533C38.5798 33.8861 38.0114 36.7991 36.8746 39.3924C35.7733 42.0212 34.1392 44.2238 31.9722 46L26.8566 40.4582C28.3132 39.1793 29.3967 37.7583 30.1072 36.1952C30.8532 34.6321 31.2262 32.9269 31.2262 31.0796C31.2262 29.3389 30.942 27.7403 30.3736 26.2838C29.8052 24.8273 28.9881 23.5662 27.9224 22.5004C26.8566 21.4347 25.5955 20.5999 24.139 19.9959C22.6825 19.4276 21.0661 19.1434 19.2899 19.1434C17.5137 19.1434 15.8973 19.4276 14.4408 19.9959C12.9843 20.5999 11.7231 21.4347 10.6574 22.5004C9.59166 23.5662 8.7746 24.8273 8.2062 26.2838C7.63781 27.7403 7.35361 29.3389 7.35361 31.0796C7.35361 32.9269 7.70886 34.6321 8.41935 36.1952C9.16537 37.7583 10.2844 39.1793 11.7764 40.4582L6.66088 46C4.49388 44.2238 2.84197 42.0212 1.70519 39.3924C0.5684 36.7991 2.78905e-06 33.8683 2.93191e-06 30.6001Z" fill="black"/>
<path d="M2.93191e-06 30.6001C3.05769e-06 27.7226 0.461826 25.0404 1.38547 22.5537C2.34463 20.1025 3.69457 17.971 5.43528 16.1593C7.17599 14.3475 9.21866 12.9265 11.5633 11.8963C13.9079 10.9016 16.4834 10.4043 19.2899 10.4043C22.0963 10.4043 24.6719 10.9016 27.0165 11.8963C29.3611 12.9265 31.4038 14.3475 33.1445 16.1593C34.8852 18.0066 36.2174 20.1558 37.141 22.607C38.1002 25.0582 38.5798 27.7403 38.5798 30.6533C38.5798 33.8861 38.0114 36.7991 36.8746 39.3924C35.7733 42.0212 34.1392 44.2238 31.9722 46L26.8566 40.4582C28.3132 39.1793 29.3967 37.7583 30.1072 36.1952C30.8532 34.6321 31.2262 32.9269 31.2262 31.0796C31.2262 29.3389 30.942 27.7403 30.3736 26.2838C29.8052 24.8273 28.9881 23.5662 27.9224 22.5004C26.8566 21.4347 25.5955 20.5999 24.139 19.9959C22.6825 19.4276 21.0661 19.1434 19.2899 19.1434C17.5137 19.1434 15.8973 19.4276 14.4408 19.9959C12.9843 20.5999 11.7231 21.4347 10.6574 22.5004C9.59166 23.5662 8.7746 24.8273 8.2062 26.2838C7.63781 27.7403 7.35361 29.3389 7.35361 31.0796C7.35361 32.9269 7.70886 34.6321 8.41935 36.1952C9.16537 37.7583 10.2844 39.1793 11.7764 40.4582L6.66088 46C4.49388 44.2238 2.84197 42.0212 1.70519 39.3924C0.5684 36.7991 2.78905e-06 33.8683 2.93191e-06 30.6001Z" fill="black"/>
<path d="M19.5 22C24.1944 22 28 25.8056 28 30.5L28 31.5C28 36.1944 24.1944 40 19.5 40C14.8056 40 11 36.1944 11 31.5L11 30.5C11 25.8056 14.8056 22 19.5 22Z" fill="black"/>
<path d="M18.8551 31.2914L21.4706 28.92L22.9513 27.5775C23.3127 27.2498 23.8638 27.2498 24.2252 27.5775C24.6403 27.9539 24.6403 28.6061 24.2252 28.9825L18.8791 33.8297C18.1392 34.5005 17.0179 34.5227 16.2521 33.8817L13.8375 31.8609C13.3948 31.4904 13.3814 30.8142 13.8091 30.4264C14.1561 30.1118 14.6805 30.0966 15.0452 30.3905L16.2567 31.3669C17.0234 31.9848 18.1257 31.9527 18.8551 31.2914Z" fill="white"/>
</svg>
