<svg width="56" height="47" viewBox="0 0 56 47" fill="none" xmlns="http://www.w3.org/2000/svg">
<path d="M7.84375 0V45.5H0V0H7.84375ZM21.2173 23.875V27.4688H11.5L6.25 33.0312L4.875 25.25L12.375 16H21.2173V23.875Z" fill="white"/>
<path d="M36.752 46.336C33.296 46.336 30.0746 45.7813 27.088 44.672C24.144 43.52 21.584 41.8987 19.408 39.808C17.232 37.7173 15.5253 35.264 14.288 32.448C13.0933 29.632 12.496 26.5387 12.496 23.168C12.496 19.7973 13.0933 16.704 14.288 13.888C15.5253 11.072 17.232 8.61866 19.408 6.528C21.6266 4.43733 24.208 2.83733 27.152 1.728C30.096 0.575999 33.3173 0 36.816 0C40.6986 0 44.1973 0.682667 47.312 2.048C50.4693 3.37067 53.1146 5.33333 55.248 7.936L48.592 14.08C47.056 12.3307 45.3493 11.0293 43.472 10.176C41.5946 9.28 39.5466 8.832 37.328 8.832C35.2373 8.832 33.3173 9.17333 31.568 9.856C29.8186 10.5387 28.304 11.52 27.024 12.8C25.744 14.08 24.7413 15.5947 24.016 17.344C23.3333 19.0933 22.992 21.0347 22.992 23.168C22.992 25.3013 23.3333 27.2427 24.016 28.992C24.7413 30.7413 25.744 32.256 27.024 33.536C28.304 34.816 29.8186 35.7973 31.568 36.48C33.3173 37.1627 35.2373 37.504 37.328 37.504C39.5466 37.504 41.5946 37.0773 43.472 36.224C45.3493 35.328 47.056 33.984 48.592 32.192L55.248 38.336C53.1146 40.9387 50.4693 42.9227 47.312 44.288C44.1973 45.6533 40.6773 46.336 36.752 46.336Z" fill="white"/>
<path d="M24 23C24 15.8203 29.8203 10 37 10V10C44.1797 10 50 15.8203 50 23V23C50 30.1797 44.1797 36 37 36V36C29.8203 36 24 30.1797 24 23V23Z" fill="white"/>
<path d="M35.8335 25.1665L40 21L42 19C42.5523 18.4477 43.4477 18.4477 44 19C44.5523 19.5523 44.5523 20.4477 44 21L35.8588 29.1412C35.0997 29.9003 33.8768 29.9247 33.088 29.1966L29.0905 25.5066C28.4954 24.9573 28.4767 24.0233 29.0493 23.4507C29.5832 22.9168 30.4406 22.8916 31.0048 23.3932L33.0905 25.2471C33.882 25.9507 35.0847 25.9153 35.8335 25.1665Z" fill="black"/>
</svg>
