<svg width="336" height="47" viewBox="0 0 336 47" fill="none" xmlns="http://www.w3.org/2000/svg">
<path d="M81.3438 0.625069V46.1251H73.5625V0.625069H81.3438ZM95.625 0.625069V6.87507H59.4063V0.625069H95.625Z" fill="black"/>
<path d="M116.344 6.68757L102.75 46.1251H94.5313L111.656 0.625069H116.906L116.344 6.68757ZM127.719 46.1251L114.094 6.68757L113.5 0.625069H118.781L135.969 46.1251H127.719ZM127.063 29.2501V35.4688H102.313V29.2501H127.063Z" fill="black"/>
<path d="M165 34.4063C165 33.4688 164.854 32.6355 164.563 31.9063C164.292 31.1772 163.802 30.5105 163.094 29.9063C162.385 29.3022 161.385 28.7188 160.094 28.1563C158.823 27.573 157.198 26.9792 155.219 26.3751C153.052 25.7084 151.052 24.9688 149.219 24.1563C147.406 23.323 145.823 22.3647 144.469 21.2813C143.115 20.1772 142.063 18.9167 141.313 17.5001C140.563 16.0626 140.188 14.4063 140.188 12.5313C140.188 10.6772 140.573 8.98965 141.344 7.46882C142.135 5.94799 143.25 4.63549 144.688 3.53132C146.146 2.40632 147.865 1.54174 149.844 0.937569C151.823 0.312569 154.01 6.86646e-05 156.406 6.86646e-05C159.781 6.86646e-05 162.688 0.625069 165.125 1.87507C167.583 3.12507 169.469 4.80215 170.781 6.90632C172.115 9.01049 172.781 11.3334 172.781 13.8751H165C165 12.3751 164.677 11.0522 164.031 9.90632C163.406 8.73965 162.448 7.82299 161.156 7.15632C159.885 6.48965 158.271 6.15632 156.313 6.15632C154.458 6.15632 152.917 6.43757 151.688 7.00007C150.458 7.56257 149.542 8.32299 148.938 9.28132C148.333 10.2397 148.031 11.323 148.031 12.5313C148.031 13.3855 148.229 14.1667 148.625 14.8751C149.021 15.5626 149.625 16.2084 150.438 16.8126C151.25 17.3959 152.271 17.948 153.5 18.4688C154.729 18.9897 156.177 19.4897 157.844 19.9688C160.365 20.7188 162.563 21.5522 164.438 22.4688C166.313 23.3647 167.875 24.3855 169.125 25.5313C170.375 26.6772 171.313 27.9792 171.938 29.4376C172.563 30.8751 172.875 32.5105 172.875 34.3438C172.875 36.2605 172.49 37.9897 171.719 39.5313C170.948 41.0522 169.844 42.3542 168.406 43.4376C166.99 44.5001 165.281 45.323 163.281 45.9063C161.302 46.4688 159.094 46.7501 156.656 46.7501C154.469 46.7501 152.313 46.4584 150.188 45.8751C148.083 45.2917 146.167 44.4063 144.438 43.2188C142.708 42.0105 141.333 40.5105 140.313 38.7188C139.292 36.9063 138.781 34.7917 138.781 32.3751H146.625C146.625 33.8542 146.875 35.1147 147.375 36.1563C147.896 37.198 148.615 38.0522 149.531 38.7188C150.448 39.3647 151.51 39.8438 152.719 40.1563C153.948 40.4688 155.26 40.6251 156.656 40.6251C158.49 40.6251 160.021 40.3647 161.25 39.8438C162.5 39.323 163.438 38.5938 164.063 37.6563C164.688 36.7188 165 35.6355 165 34.4063Z" fill="black"/>
<path d="M187.656 0.625069V46.1251H179.813V0.625069H187.656ZM215 0.625069L196.563 22.5313L186.063 33.6563L184.688 25.8751L192.188 16.6251L205.438 0.625069H215ZM206.563 46.1251L191.594 24.5626L197 19.2188L215.875 46.1251H206.563Z" fill="black"/>
<path d="M237.969 6.68757L224.375 46.1251H216.156L233.281 0.625069H238.531L237.969 6.68757ZM249.344 46.1251L235.719 6.68757L235.125 0.625069H240.406L257.594 46.1251H249.344ZM248.688 29.2501V35.4688H223.938V29.2501H248.688Z" fill="black"/>
<path d="M297.125 22.8751V40.2501C296.479 41.1042 295.469 42.0417 294.094 43.0626C292.74 44.0626 290.938 44.9272 288.688 45.6563C286.438 46.3855 283.635 46.7501 280.281 46.7501C277.427 46.7501 274.813 46.2709 272.438 45.3126C270.063 44.3334 268.01 42.9063 266.281 41.0313C264.573 39.1563 263.25 36.8751 262.313 34.1876C261.375 31.4792 260.906 28.3959 260.906 24.9376V21.7813C260.906 18.3438 261.333 15.2813 262.188 12.5938C263.063 9.88549 264.313 7.59382 265.938 5.71882C267.563 3.84382 269.521 2.42715 271.813 1.46882C274.125 0.489652 276.74 6.86646e-05 279.656 6.86646e-05C283.385 6.86646e-05 286.469 0.625069 288.906 1.87507C291.365 3.10424 293.26 4.81257 294.594 7.00007C295.927 9.18757 296.771 11.6876 297.125 14.5001H289.438C289.188 12.9167 288.698 11.5001 287.969 10.2501C287.26 9.00007 286.24 8.0209 284.906 7.31257C283.594 6.5834 281.885 6.21882 279.781 6.21882C277.969 6.21882 276.375 6.56257 275 7.25007C273.625 7.93757 272.479 8.94799 271.563 10.2813C270.667 11.6147 269.99 13.2397 269.531 15.1563C269.073 17.073 268.844 19.2605 268.844 21.7188V24.9376C268.844 27.4376 269.104 29.6563 269.625 31.5938C270.167 33.5313 270.938 35.1667 271.938 36.5001C272.958 37.8334 274.198 38.8438 275.656 39.5313C277.115 40.198 278.76 40.5313 280.594 40.5313C282.385 40.5313 283.854 40.3855 285 40.0938C286.146 39.7813 287.052 39.4167 287.719 39.0001C288.406 38.5626 288.938 38.1459 289.313 37.7501V28.7188H279.844V22.8751H297.125Z" fill="black"/>
<path d="M335.594 39.9063V46.1251H311.438V39.9063H335.594ZM313.656 0.625069V46.1251H305.813V0.625069H313.656ZM332.438 19.6251V25.7501H311.438V19.6251H332.438ZM335.438 0.625069V6.87507H311.438V0.625069H335.438Z" fill="black"/>
<path d="M38.5798 6.53078L0.696068 6.53078L0.696068 -1.65595e-06L38.5798 0L38.5798 6.53078ZM18.7012 17.6657L15.7091 17.6657L15.7091 9.57501L11.0777 5.20381L17.5564 4.05897L25.258 10.3035L25.258 17.6657L18.7012 17.6657Z" fill="black"/>
<path d="M3.79828e-06 30.6001C3.92406e-06 27.7226 0.461826 25.0404 1.38547 22.5537C2.34463 20.1025 3.69457 17.971 5.43528 16.1593C7.17599 14.3475 9.21866 12.9265 11.5633 11.8963C13.9079 10.9016 16.4834 10.4043 19.2899 10.4043C22.0963 10.4043 24.6719 10.9016 27.0165 11.8963C29.3611 12.9265 31.4038 14.3475 33.1445 16.1593C34.8852 18.0066 36.2174 20.1558 37.141 22.607C38.1002 25.0582 38.5798 27.7403 38.5798 30.6533C38.5798 33.8861 38.0114 36.7991 36.8746 39.3924C35.7733 42.0212 34.1392 44.2238 31.9722 46L26.8566 40.4582C28.3132 39.1793 29.3967 37.7583 30.1072 36.1952C30.8532 34.6321 31.2262 32.9269 31.2262 31.0796C31.2262 29.3389 30.942 27.7403 30.3736 26.2838C29.8052 24.8273 28.9881 23.5662 27.9224 22.5004C26.8567 21.4347 25.5955 20.5999 24.139 19.9959C22.6825 19.4276 21.0661 19.1434 19.2899 19.1434C17.5137 19.1434 15.8973 19.4276 14.4408 19.9959C12.9843 20.5999 11.7231 21.4347 10.6574 22.5004C9.59166 23.5662 8.7746 24.8273 8.2062 26.2838C7.63781 27.7403 7.35361 29.3389 7.35361 31.0796C7.35361 32.9269 7.70886 34.6321 8.41935 36.1952C9.16537 37.7583 10.2844 39.1793 11.7764 40.4582L6.66088 46C4.49388 44.2238 2.84198 42.0212 1.70519 39.3924C0.568398 36.7991 3.65542e-06 33.8683 3.79828e-06 30.6001Z" fill="black"/>
<path d="M3.79828e-06 30.6001C3.92406e-06 27.7226 0.461826 25.0404 1.38547 22.5537C2.34463 20.1025 3.69457 17.971 5.43528 16.1593C7.17599 14.3475 9.21866 12.9265 11.5633 11.8963C13.9079 10.9016 16.4834 10.4043 19.2899 10.4043C22.0963 10.4043 24.6719 10.9016 27.0165 11.8963C29.3611 12.9265 31.4038 14.3475 33.1445 16.1593C34.8852 18.0066 36.2174 20.1558 37.141 22.607C38.1002 25.0582 38.5798 27.7403 38.5798 30.6533C38.5798 33.8861 38.0114 36.7991 36.8746 39.3924C35.7733 42.0212 34.1392 44.2238 31.9722 46L26.8566 40.4582C28.3132 39.1793 29.3967 37.7583 30.1072 36.1952C30.8532 34.6321 31.2262 32.9269 31.2262 31.0796C31.2262 29.3389 30.942 27.7403 30.3736 26.2838C29.8052 24.8273 28.9881 23.5662 27.9224 22.5004C26.8567 21.4347 25.5955 20.5999 24.139 19.9959C22.6825 19.4276 21.0661 19.1434 19.2899 19.1434C17.5137 19.1434 15.8973 19.4276 14.4408 19.9959C12.9843 20.5999 11.7231 21.4347 10.6574 22.5004C9.59166 23.5662 8.7746 24.8273 8.2062 26.2838C7.63781 27.7403 7.35361 29.3389 7.35361 31.0796C7.35361 32.9269 7.70886 34.6321 8.41935 36.1952C9.16537 37.7583 10.2844 39.1793 11.7764 40.4582L6.66088 46C4.49388 44.2238 2.84198 42.0212 1.70519 39.3924C0.568398 36.7991 3.65542e-06 33.8683 3.79828e-06 30.6001Z" fill="black"/>
<path d="M19.5 22C24.1944 22 28 25.8056 28 30.5L28 31.5C28 36.1944 24.1944 40 19.5 40V40C14.8056 40 11 36.1944 11 31.5L11 30.5C11 25.8056 14.8056 22 19.5 22V22Z" fill="black"/>
<path d="M18.8551 31.2914L21.4706 28.92L22.9513 27.5775C23.3127 27.2498 23.8638 27.2498 24.2252 27.5775C24.6403 27.9539 24.6403 28.6061 24.2252 28.9825L18.8791 33.8297C18.1392 34.5005 17.0179 34.5227 16.2521 33.8817L13.8375 31.8609C13.3948 31.4904 13.3814 30.8142 13.8091 30.4264C14.1561 30.1118 14.6805 30.0966 15.0452 30.3905L16.2567 31.3669C17.0234 31.9848 18.1257 31.9527 18.8551 31.2914Z" fill="white"/>
</svg>
