<svg width="348" height="47" viewBox="0 0 348 47" fill="none" xmlns="http://www.w3.org/2000/svg">
<path d="M93.3438 0.625V46.125H85.5625V0.625H93.3438ZM107.625 0.625V6.875H71.4062V0.625H107.625Z" fill="white"/>
<path d="M128.344 6.6875L114.75 46.125H106.531L123.656 0.625H128.906L128.344 6.6875ZM139.719 46.125L126.094 6.6875L125.5 0.625H130.781L147.969 46.125H139.719ZM139.062 29.25V35.4688H114.312V29.25H139.062Z" fill="white"/>
<path d="M177 34.4062C177 33.4688 176.854 32.6354 176.562 31.9062C176.292 31.1771 175.802 30.5104 175.094 29.9062C174.385 29.3021 173.385 28.7188 172.094 28.1562C170.823 27.5729 169.198 26.9792 167.219 26.375C165.052 25.7083 163.052 24.9688 161.219 24.1562C159.406 23.3229 157.823 22.3646 156.469 21.2812C155.115 20.1771 154.062 18.9167 153.312 17.5C152.562 16.0625 152.188 14.4062 152.188 12.5312C152.188 10.6771 152.573 8.98958 153.344 7.46875C154.135 5.94792 155.25 4.63542 156.688 3.53125C158.146 2.40625 159.865 1.54167 161.844 0.9375C163.823 0.3125 166.01 0 168.406 0C171.781 0 174.688 0.625 177.125 1.875C179.583 3.125 181.469 4.80208 182.781 6.90625C184.115 9.01042 184.781 11.3333 184.781 13.875H177C177 12.375 176.677 11.0521 176.031 9.90625C175.406 8.73958 174.448 7.82292 173.156 7.15625C171.885 6.48958 170.271 6.15625 168.312 6.15625C166.458 6.15625 164.917 6.4375 163.688 7C162.458 7.5625 161.542 8.32292 160.938 9.28125C160.333 10.2396 160.031 11.3229 160.031 12.5312C160.031 13.3854 160.229 14.1667 160.625 14.875C161.021 15.5625 161.625 16.2083 162.438 16.8125C163.25 17.3958 164.271 17.9479 165.5 18.4688C166.729 18.9896 168.177 19.4896 169.844 19.9688C172.365 20.7188 174.562 21.5521 176.438 22.4688C178.312 23.3646 179.875 24.3854 181.125 25.5312C182.375 26.6771 183.312 27.9792 183.938 29.4375C184.562 30.875 184.875 32.5104 184.875 34.3438C184.875 36.2604 184.49 37.9896 183.719 39.5312C182.948 41.0521 181.844 42.3542 180.406 43.4375C178.99 44.5 177.281 45.3229 175.281 45.9062C173.302 46.4688 171.094 46.75 168.656 46.75C166.469 46.75 164.312 46.4583 162.188 45.875C160.083 45.2917 158.167 44.4062 156.438 43.2188C154.708 42.0104 153.333 40.5104 152.312 38.7188C151.292 36.9062 150.781 34.7917 150.781 32.375H158.625C158.625 33.8542 158.875 35.1146 159.375 36.1562C159.896 37.1979 160.615 38.0521 161.531 38.7188C162.448 39.3646 163.51 39.8438 164.719 40.1562C165.948 40.4688 167.26 40.625 168.656 40.625C170.49 40.625 172.021 40.3646 173.25 39.8438C174.5 39.3229 175.438 38.5938 176.062 37.6562C176.688 36.7188 177 35.6354 177 34.4062Z" fill="white"/>
<path d="M199.656 0.625V46.125H191.812V0.625H199.656ZM227 0.625L208.562 22.5312L198.062 33.6562L196.688 25.875L204.188 16.625L217.438 0.625H227ZM218.562 46.125L203.594 24.5625L209 19.2188L227.875 46.125H218.562Z" fill="white"/>
<path d="M249.969 6.6875L236.375 46.125H228.156L245.281 0.625H250.531L249.969 6.6875ZM261.344 46.125L247.719 6.6875L247.125 0.625H252.406L269.594 46.125H261.344ZM260.688 29.25V35.4688H235.938V29.25H260.688Z" fill="white"/>
<path d="M309.125 22.875V40.25C308.479 41.1042 307.469 42.0417 306.094 43.0625C304.74 44.0625 302.938 44.9271 300.688 45.6562C298.438 46.3854 295.635 46.75 292.281 46.75C289.427 46.75 286.812 46.2708 284.438 45.3125C282.062 44.3333 280.01 42.9062 278.281 41.0312C276.573 39.1562 275.25 36.875 274.312 34.1875C273.375 31.4792 272.906 28.3958 272.906 24.9375V21.7812C272.906 18.3438 273.333 15.2812 274.188 12.5938C275.062 9.88542 276.312 7.59375 277.938 5.71875C279.562 3.84375 281.521 2.42708 283.812 1.46875C286.125 0.489583 288.74 0 291.656 0C295.385 0 298.469 0.625 300.906 1.875C303.365 3.10417 305.26 4.8125 306.594 7C307.927 9.1875 308.771 11.6875 309.125 14.5H301.438C301.188 12.9167 300.698 11.5 299.969 10.25C299.26 9 298.24 8.02083 296.906 7.3125C295.594 6.58333 293.885 6.21875 291.781 6.21875C289.969 6.21875 288.375 6.5625 287 7.25C285.625 7.9375 284.479 8.94792 283.562 10.2812C282.667 11.6146 281.99 13.2396 281.531 15.1562C281.073 17.0729 280.844 19.2604 280.844 21.7188V24.9375C280.844 27.4375 281.104 29.6562 281.625 31.5938C282.167 33.5312 282.938 35.1667 283.938 36.5C284.958 37.8333 286.198 38.8438 287.656 39.5312C289.115 40.1979 290.76 40.5312 292.594 40.5312C294.385 40.5312 295.854 40.3854 297 40.0938C298.146 39.7812 299.052 39.4167 299.719 39C300.406 38.5625 300.938 38.1458 301.312 37.75V28.7188H291.844V22.875H309.125Z" fill="white"/>
<path d="M347.594 39.9062V46.125H323.438V39.9062H347.594ZM325.656 0.625V46.125H317.812V0.625H325.656ZM344.438 19.625V25.75H323.438V19.625H344.438ZM347.438 0.625V6.875H323.438V0.625H347.438Z" fill="white"/>
<path d="M7.84375 0V45.5H0V0H7.84375ZM21.2173 23.875V27.4688H11.5L6.25 33.0312L4.875 25.25L12.375 16H21.2173V23.875Z" fill="white"/>
<path d="M36.752 46.336C33.296 46.336 30.0746 45.7813 27.088 44.672C24.144 43.52 21.584 41.8987 19.408 39.808C17.232 37.7173 15.5253 35.264 14.288 32.448C13.0933 29.632 12.496 26.5387 12.496 23.168C12.496 19.7973 13.0933 16.704 14.288 13.888C15.5253 11.072 17.232 8.61866 19.408 6.528C21.6266 4.43733 24.208 2.83733 27.152 1.728C30.096 0.575999 33.3173 0 36.816 0C40.6986 0 44.1973 0.682667 47.312 2.048C50.4693 3.37067 53.1146 5.33333 55.248 7.936L48.592 14.08C47.056 12.3307 45.3493 11.0293 43.472 10.176C41.5946 9.28 39.5466 8.832 37.328 8.832C35.2373 8.832 33.3173 9.17333 31.568 9.856C29.8186 10.5387 28.304 11.52 27.024 12.8C25.744 14.08 24.7413 15.5947 24.016 17.344C23.3333 19.0933 22.992 21.0347 22.992 23.168C22.992 25.3013 23.3333 27.2427 24.016 28.992C24.7413 30.7413 25.744 32.256 27.024 33.536C28.304 34.816 29.8186 35.7973 31.568 36.48C33.3173 37.1627 35.2373 37.504 37.328 37.504C39.5466 37.504 41.5946 37.0773 43.472 36.224C45.3493 35.328 47.056 33.984 48.592 32.192L55.248 38.336C53.1146 40.9387 50.4693 42.9227 47.312 44.288C44.1973 45.6533 40.6773 46.336 36.752 46.336Z" fill="white"/>
<path d="M24 23C24 15.8203 29.8203 10 37 10V10C44.1797 10 50 15.8203 50 23V23C50 30.1797 44.1797 36 37 36V36C29.8203 36 24 30.1797 24 23V23Z" fill="white"/>
<path d="M35.8335 25.1665L40 21L42 19C42.5523 18.4477 43.4477 18.4477 44 19C44.5523 19.5523 44.5523 20.4477 44 21L35.8588 29.1412C35.0997 29.9003 33.8768 29.9247 33.088 29.1966L29.0905 25.5066C28.4954 24.9573 28.4767 24.0233 29.0493 23.4507C29.5832 22.9168 30.4406 22.8916 31.0048 23.3932L33.0905 25.2471C33.882 25.9507 35.0847 25.9153 35.8335 25.1665Z" fill="black"/>
</svg>
